<svg xmlns="http://www.w3.org/2000/svg" viewBox="0 0 60 60" x="0px" y="0px">
  <path
    d="M2,60H58a2,2,0,0,0,2-2V56a2,2,0,0,0-2-2H33.044A7.368,7.368,0,0,1,38.2,47.237a2.686,2.686,0,0,0,.3-4.946,22,22,0,1,0-17,0,2.686,2.686,0,0,0,.3,4.947A7.366,7.366,0,0,1,26.956,54H2a2,2,0,0,0-2,2v2A2,2,0,0,0,2,60Zm8-38A20,20,0,1,1,30,42,20.023,20.023,0,0,1,10,22ZM22.438,45.343A.673.673,0,0,1,22,44.7a.7.7,0,0,1,.7-.7h14.61a.7.7,0,0,1,.7.7.671.671,0,0,1-.438.647A9.412,9.412,0,0,0,31.043,54H28.957A9.409,9.409,0,0,0,22.438,45.343ZM2,56H58v2H2Z" />
  <path
    d="M30.867,39.5a1,1,0,0,0,1.731-1,3,3,0,0,0-5.2,0,1,1,0,0,0,1.731,1A1.042,1.042,0,0,1,30.867,39.5Z" />
  <path
    d="M29.294,35.039a1,1,0,0,0,1.313-.524,1,1,0,0,1,1.721-.2,1,1,0,1,0,1.6-1.2,3,3,0,0,0-5.16.612A1,1,0,0,0,29.294,35.039Z" />
  <path
    d="M35.431,32.464a1,1,0,0,0,.983.824.979.979,0,0,0,.177-.016,1,1,0,0,0,.808-1.16A1,1,0,0,1,38.723,31a1,1,0,1,0,.679-1.881,3,3,0,0,0-3.971,3.35Z" />
  <path
    d="M32.238,29.113a1.075,1.075,0,0,0,.177-.015,1,1,0,0,0,.809-1.16,1,1,0,0,1,1.325-1.118,1,1,0,0,0,.676-1.882,3,3,0,0,0-3.97,3.351A1,1,0,0,0,32.238,29.113Z" />
  <path
    d="M41.021,28.055a1,1,0,0,0,.724-1.69,1,1,0,0,1,.49-1.661,1,1,0,1,0-.47-1.943A3,3,0,0,0,40.3,27.744,1,1,0,0,0,41.021,28.055Z" />
  <path
    d="M40,35.379A3,3,0,0,0,35.4,37.8a1,1,0,0,0,.959,1.039H36.4a1,1,0,0,0,1-.96,1,1,0,0,1,1.535-.811A1,1,0,0,0,40,35.379Z" />
  <path
    d="M42.383,30.465a3.012,3.012,0,0,0-.229,2.989,1,1,0,1,0,1.8-.863,1,1,0,0,1,.979-1.432,1,1,0,1,0,.147-1.994A3,3,0,0,0,42.383,30.465Z" />

</svg>