<svg width="198" height="185" viewBox="0 0 198 185" fill="none" xmlns="http://www.w3.org/2000/svg">
<path fill-rule="evenodd" clip-rule="evenodd" d="M7.35689 65.5436L74.8091 65.5436L74.8091 77.8076L7.35689 77.8076L7.35689 65.5436Z" fill="#333333"/>
<path fill-rule="evenodd" clip-rule="evenodd" d="M68.6771 182.052L68.6771 71.6756L80.9411 71.6756L80.9411 182.052L68.6771 182.052Z" fill="#333333"/>
<path fill-rule="evenodd" clip-rule="evenodd" d="M145.127 31.0123C149.702 35.8296 154.304 40.2147 160.493 43.8945C167.974 48.3426 175.184 52.9231 180.974 58.1291C186.835 63.3977 191.658 69.6706 193.791 77.6237C195.691 84.7036 194.993 92.4187 194.122 99.3581C193.909 101.048 193.684 102.714 193.459 104.367C192.702 109.951 191.964 115.399 191.833 121.175C191.458 137.669 190.762 151.366 186.304 161.54C183.939 166.936 180.502 171.448 175.605 174.973C170.81 178.424 164.987 180.662 158.214 182.144L157.404 182.321H156.576C147.297 182.321 140.238 177.201 133.568 170.632C129.517 166.642 124.878 161.334 119.468 155.145C116.186 151.389 112.62 147.309 108.73 143.002C106.622 140.668 104.624 138.427 102.706 136.277C84.8341 116.234 73.9526 104.03 45.8732 97.0106C44.6451 96.7036 43.2104 96.3717 41.6352 96.0072C36.4903 94.817 29.846 93.2798 24.0029 91.13C16.7879 88.4754 7.31627 83.7341 4.31216 74.2621C-0.171097 60.1264 5.40726 43.4337 16.3781 30.3683C27.588 17.0183 45.2735 6.25171 67.5813 3.77306C99.9523 0.176286 117.134 5.86695 129.918 16.0254C134.694 19.8213 138.798 24.2303 142.521 28.2302C143.41 29.1856 144.277 30.1176 145.127 31.0123ZM120.38 28.0275C111.702 21.1312 98.99 15.7076 69.2743 19.0093C51.0002 21.0398 36.872 29.8013 28.1182 40.2264C19.1253 50.9361 16.59 62.2657 18.9249 69.6276C19.5338 71.5474 22.2782 74.1607 29.2963 76.7428C34.1455 78.527 39.3453 79.7322 44.3177 80.8848C46.1144 81.3012 47.8813 81.7108 49.5912 82.1383C82.3903 90.338 96.172 105.841 114.093 125.999C116.038 128.188 118.033 130.431 120.106 132.726C124.547 137.643 128.317 141.962 131.633 145.762C136.65 151.511 140.629 156.07 144.324 159.71C149.819 165.121 153.041 166.737 155.845 166.962C160.836 165.787 164.234 164.269 166.649 162.531C169.106 160.762 170.89 158.519 172.263 155.387C175.278 148.507 176.115 138.059 176.507 120.827C176.659 114.1 177.555 107.52 178.331 101.82C178.538 100.295 178.737 98.8335 178.911 97.4486C179.792 90.4312 180.021 85.4576 178.985 81.5962C177.872 77.4473 175.236 73.5847 170.725 69.5293C166.145 65.4113 160.072 61.4792 152.658 57.0712C144.667 52.3194 138.921 46.74 134.011 41.5688C132.932 40.4328 131.914 39.341 130.933 38.2892C127.295 34.3897 124.171 31.0398 120.38 28.0275Z" fill="#006F41" stroke="white" stroke-width="5"/>
<circle cx="74.8089" cy="71.6756" r="9.19803" fill="#333333"/>
</svg>
